<?xml version="1.0" encoding="UTF-8"?>
<svg version="1.1" xmlns="http://www.w3.org/2000/svg" width="44" height="50">
<path d="M0 0 C0.804375 -0.00128906 1.60875 -0.00257812 2.4375 -0.00390625 C3.283125 -0.00003906 4.12875 0.00382812 5 0.0078125 C6.2684375 0.00201172 6.2684375 0.00201172 7.5625 -0.00390625 C8.366875 -0.00261719 9.17125 -0.00132813 10 0 C10.7425 0.00112793 11.485 0.00225586 12.25 0.00341797 C14 0.1328125 14 0.1328125 15 1.1328125 C15.08651611 2.54851373 15.10704904 3.9684075 15.09765625 5.38671875 C15.09443359 6.24072266 15.09121094 7.09472656 15.08789062 7.97460938 C15.07532227 9.32135742 15.07532227 9.32135742 15.0625 10.6953125 C15.05798828 11.59701172 15.05347656 12.49871094 15.04882812 13.42773438 C15.03700244 15.66278839 15.01906638 17.89780852 15 20.1328125 C18.96 20.1328125 22.92 20.1328125 27 20.1328125 C27 25.75547045 27 25.75547045 24.11328125 29.09375 C23.50419922 29.81304688 22.89511719 30.53234375 22.26757812 31.2734375 C21.62240234 32.01078125 20.97722656 32.748125 20.3125 33.5078125 C19.05645198 34.97212389 17.80251459 36.43824859 16.55078125 37.90625 C15.94314941 38.61233398 15.33551758 39.31841797 14.70947266 40.04589844 C13.10596431 42.0034519 11.69517151 44.00526531 10.29296875 46.109375 C8 49.1328125 8 49.1328125 6.00268555 49.94262695 C5.0113562 50.0367688 5.0113562 50.0367688 4 50.1328125 C2.05416143 48.52212673 0.60888896 47.04910002 -1 45.1328125 C-1.77585449 44.21604736 -1.77585449 44.21604736 -2.56738281 43.28076172 C-4.27474337 41.22720592 -5.95297126 39.15271359 -7.625 37.0703125 C-8.19734375 36.36326172 -8.7696875 35.65621094 -9.359375 34.92773438 C-10.91432558 33.00212698 -12.4668781 31.07584765 -14 29.1328125 C-14.55606934 28.49931885 -15.11213867 27.8658252 -15.68505859 27.21313477 C-17 25.1328125 -17 25.1328125 -17 20.1328125 C-13.04 20.1328125 -9.08 20.1328125 -5 20.1328125 C-5.01740234 18.09287109 -5.01740234 18.09287109 -5.03515625 16.01171875 C-5.04453262 14.2395847 -5.05363298 12.46744917 -5.0625 10.6953125 C-5.07087891 9.79748047 -5.07925781 8.89964844 -5.08789062 7.97460938 C-5.09111328 7.12060547 -5.09433594 6.26660156 -5.09765625 5.38671875 C-5.10289307 4.59595947 -5.10812988 3.8052002 -5.11352539 2.99047852 C-4.89918292 -0.51690185 -3.04503548 0.0046257 0 0 Z " fill="#2E69EB" transform="translate(17,-0.1328125)"/>
</svg>
