<?xml version="1.0" encoding="UTF-8"?>
<svg version="1.1" xmlns="http://www.w3.org/2000/svg" width="58" height="58">
<path d="M0 0 C0 0.66 0 1.32 0 2 C-0.66 2 -1.32 2 -2 2 C-2.60707512 12.10173006 2.9263137 19.73860373 8 28 C10.12508244 24.81237635 10.5020163 22.73487777 11 19 C12.96875 20.3515625 12.96875 20.3515625 15 23 C15.62018166 26.46165755 15.55766468 29.86706553 15.5 33.375 C15.51546875 34.30828125 15.5309375 35.2415625 15.546875 36.203125 C15.50882588 42.91879494 14.21265418 46.76428849 9.3671875 51.64453125 C2.44239963 57.06471861 -4.47467479 56.77021447 -13 56 C-19.67378019 54.41963274 -24.19837273 49.51749688 -28 44 C-30.69496394 38.46586001 -30.76887706 33.03904413 -30 27 C-28.67010763 23.43662985 -27.00081562 20.22988806 -25 17 C-24.34 17 -23.68 17 -23 17 C-22.67 18.65 -22.34 20.3 -22 22 C-21.773125 20.824375 -21.54625 19.64875 -21.3125 18.4375 C-19.45730591 11.28175137 -16.11294247 7.44344998 -9.8125 3.625 C-3.34759358 0 -3.34759358 0 0 0 Z M-8 10 C-14.64165248 14.61225866 -17.14803467 20.43780823 -19 28 C-20.65 28.33 -22.3 28.66 -24 29 C-24.6878236 31.35367713 -24.6878236 31.35367713 -25 34 C-24.34 34.99 -23.68 35.98 -23 37 C-22.34 35.68 -21.68 34.36 -21 33 C-19.9171875 33.0928125 -19.9171875 33.0928125 -18.8125 33.1875 C-15.36123873 32.95741592 -13.65921904 32.20335292 -11 30 C-10.41649495 27.45709375 -10.41649495 27.45709375 -11 25 C-11.66 24.34 -12.32 23.68 -13 23 C-13 22.01 -13 21.02 -13 20 C-9.56661484 21.20632452 -7.49635415 22.38477184 -5 25 C-4.34 25 -3.68 25 -3 25 C-1.92474806 27.65228812 -0.90543849 30.28368454 0 33 C1.32 32.67 2.64 32.34 4 32 C3.195625 30.63875 3.195625 30.63875 2.375 29.25 C-0.16389228 24.82507345 -2.38934735 20.25179868 -4.6328125 15.671875 C-5.99626057 12.88125491 -5.99626057 12.88125491 -8 10 Z M-7 29 C-7.6496875 30.1446875 -7.6496875 30.1446875 -8.3125 31.3125 C-10 34 -10 34 -12.125 35.5625 C-14.34170728 37.26197558 -14.62593017 38.28799375 -15 41 C-15.99 41 -16.98 41 -18 41 C-18.66 40.34 -19.32 39.68 -20 39 C-20.58963678 41.24224658 -20.58963678 41.24224658 -20 44 C-16.63501293 47.78108763 -13.09038856 50.69906329 -7.9140625 51.203125 C-3.06392425 51.30244524 0.00832592 51.09032832 4 48 C3.67 45.69 3.34 43.38 3 41 C2.67 41.66 2.34 42.32 2 43 C-1.0625 43.625 -1.0625 43.625 -4 44 C-3.89300781 43.33613281 -3.78601563 42.67226563 -3.67578125 41.98828125 C-2.84988223 36.30400499 -2.84988223 36.30400499 -4.375 30.875 C-4.91125 30.25625 -5.4475 29.6375 -6 29 C-6.33 29 -6.66 29 -7 29 Z M5 34 C5.66 36.97 6.32 39.94 7 43 C7.66 43 8.32 43 9 43 C10.4783226 40.04335481 10.06032783 37.25770263 10 34 C8.35 34 6.7 34 5 34 Z " fill="#697C89" transform="translate(35,1)"/>
</svg>
