<?xml version="1.0" encoding="UTF-8"?>
<svg version="1.1" xmlns="http://www.w3.org/2000/svg" width="58" height="58">
<path d="M0 0 C-0.99 0.33 -1.98 0.66 -3 1 C-3.60707512 11.10173006 1.9263137 18.73860373 7 27 C9.29013653 23.5647952 9.17842973 22.014669 9 18 C12.875 19.75 12.875 19.75 14 22 C14.29305322 25.40992687 14.27796715 28.8289453 14.3125 32.25 C14.34150391 33.19230469 14.37050781 34.13460937 14.40039062 35.10546875 C14.45363182 40.94561794 13.98528949 44.41369737 10 49 C5.05455504 53.98093859 1.26446362 55.25036979 -5.625 55.3125 C-13.24296048 55.3125 -18.29831447 54.53913646 -23.95703125 49.12890625 C-29.80184951 42.83173953 -31.49794273 37.73219815 -31.40234375 29.16015625 C-30.76729205 24.17222591 -28.62103313 20.23109634 -26 16 C-25.34 16 -24.68 16 -24 16 C-23.67 17.65 -23.34 19.3 -23 21 C-22.773125 19.824375 -22.54625 18.64875 -22.3125 17.4375 C-20.45730591 10.28175137 -17.11294247 6.44344998 -10.8125 2.625 C-3.99407769 -1.19822331 -3.99407769 -1.19822331 0 0 Z " fill="#F3705A" transform="translate(36,2)"/>
<path d="M0 0 C0.185625 0.928125 0.37125 1.85625 0.5625 2.8125 C1.87909912 7.56581006 4.66885237 11.32818909 7.44140625 15.3515625 C8.99221107 17.98676468 9.60358881 19.9916192 10 23 C10.99 19.535 10.99 19.535 12 16 C12.33 16 12.66 16 13 16 C13.62108626 23.91884984 13.62108626 23.91884984 11.3125 27.9375 C7.0628209 31.72775433 2.83999012 32.65019204 -2.7734375 32.5 C-6.25992161 31.71707024 -7.89293885 29.96881206 -9.9765625 27.1484375 C-11.72008507 23.48837104 -11.63549779 19.94973945 -11 16 C-10.67 15.34 -10.34 14.68 -10 14 C-9.34 14 -8.68 14 -8 14 C-7.67 14.66 -7.34 15.32 -7 16 C-6.98582031 15.34773438 -6.97164062 14.69546875 -6.95703125 14.0234375 C-6.73885294 10.02546736 -6.00268161 0 0 0 Z " fill="#FED15B" transform="translate(27,25)"/>
</svg>
