<?xml version="1.0" encoding="UTF-8"?>
<svg version="1.1" xmlns="http://www.w3.org/2000/svg" width="58" height="57">
<path d="M0 0 C1.98 0 3.96 0 6 0 C7.17154293 2.28929053 8.33738074 4.58118362 9.5 6.875 C9.83386719 7.52597656 10.16773438 8.17695313 10.51171875 8.84765625 C13 13.7734375 13 13.7734375 13 16 C13.78503906 16.06058594 14.57007813 16.12117188 15.37890625 16.18359375 C20.95361148 16.62820214 26.47640616 17.12124643 32 18 C32.49954928 21.49684498 32.74793389 23.98833184 30.58203125 26.91796875 C27.59000772 29.90999228 24.40842311 32.49646798 21 35 C21.144375 36.08539063 21.28875 37.17078125 21.4375 38.2890625 C21.62519956 39.7343491 21.81268838 41.17966307 22 42.625 C22.09539063 43.33785156 22.19078125 44.05070312 22.2890625 44.78515625 C22.81606101 48.88821609 23.10466984 52.85245742 23 57 C16.86894937 56.72750886 12.90563345 54.42967332 7.74609375 51.1796875 C4.26225089 49.68307222 2.62066351 49.96353278 -1 51 C-3.07432895 51.95271342 -5.11725491 52.97646909 -7.125 54.0625 C-10.94176382 56.12627178 -12.58547221 57 -17 57 C-17.15466806 53.05596459 -17.21777721 49.79544915 -16.16796875 45.9609375 C-15.23702297 42.39868835 -14.68345384 39.68147519 -15 36 C-17.15818562 33.17215813 -19.20334805 31.04090255 -21.9855957 28.8659668 C-23.5234375 27.6328125 -23.5234375 27.6328125 -26 25 C-26.3515625 21.1796875 -26.3515625 21.1796875 -26 18 C-24.7934375 17.95746094 -23.586875 17.91492188 -22.34375 17.87109375 C-13.66665993 17.45914834 -13.66665993 17.45914834 -6.36230469 13.38574219 C-3.48787955 9.25336294 -1.66349053 4.72873358 0 0 Z " fill="#2563EB" transform="translate(26,0)"/>
</svg>
