<?xml version="1.0" encoding="UTF-8"?>
<svg version="1.1" xmlns="http://www.w3.org/2000/svg" width="50" height="50">
<path d="M0 0 C1.8359375 0.171875 1.8359375 0.171875 4 1 C5.3515625 3.328125 5.3515625 3.328125 6.625 6.25 C9.77448047 12.49214042 13.54621193 14.69143154 20 17 C20 18.32 20 19.64 20 21 C18.37750059 21.83819158 16.75191503 22.6704116 15.125 23.5 C14.22007813 23.9640625 13.31515625 24.428125 12.3828125 24.90625 C10 26 10 26 8 26 C7.70996094 26.92232422 7.70996094 26.92232422 7.4140625 27.86328125 C7.15367188 28.67152344 6.89328125 29.47976562 6.625 30.3125 C6.24214844 31.51326172 6.24214844 31.51326172 5.8515625 32.73828125 C5 35 5 35 3 38 C1.12890625 37.828125 1.12890625 37.828125 -1 37 C-2.09765625 34.671875 -2.09765625 34.671875 -3.0625 31.75 C-5.09999111 26.79167511 -6.90538573 24.98295439 -11.8125 22.8125 C-13.52820222 22.17109481 -15.25394793 21.5534771 -17 21 C-16.77734375 18.64453125 -16.77734375 18.64453125 -16 16 C-14.00390625 14.63671875 -14.00390625 14.63671875 -11.5625 13.6875 C-10.75941406 13.36136719 -9.95632812 13.03523438 -9.12890625 12.69921875 C-7 12 -7 12 -5 12 C-4.80664062 11.38511719 -4.61328125 10.77023438 -4.4140625 10.13671875 C-4.15367188 9.32847656 -3.89328125 8.52023437 -3.625 7.6875 C-3.36976562 6.88699219 -3.11453125 6.08648437 -2.8515625 5.26171875 C-2 3 -2 3 0 0 Z " fill="#2563EB" transform="translate(17,6)"/>
<path d="M0 0 C1.32 0.33 2.64 0.66 4 1 C4.33 2.65 4.66 4.3 5 6 C6.98 6.66 8.96 7.32 11 8 C10.67 9.32 10.34 10.64 10 12 C8.35 12.33 6.7 12.66 5 13 C4.34 14.98 3.68 16.96 3 19 C2.01 19 1.02 19 0 19 C-0.20625 18.05125 -0.4125 17.1025 -0.625 16.125 C-1.70833333 12.70833333 -1.70833333 12.70833333 -5.125 11.625 C-6.07375 11.41875 -7.0225 11.2125 -8 11 C-8 10.01 -8 9.02 -8 8 C-6.576875 7.4121875 -6.576875 7.4121875 -5.125 6.8125 C-1.65872662 4.80206144 -1.0197307 3.77300358 0 0 Z " fill="#2563EB" transform="translate(39,31)"/>
<path d="M0 0 C1.32 0.33 2.64 0.66 4 1 C4.33 2.65 4.66 4.3 5 6 C6.98 6.66 8.96 7.32 11 8 C11 8.99 11 9.98 11 11 C10.05125 11.20625 9.1025 11.4125 8.125 11.625 C4.70833333 12.70833333 4.70833333 12.70833333 3.625 16.125 C3.41875 17.07375 3.2125 18.0225 3 19 C2.01 19 1.02 19 0 19 C-0.5878125 17.576875 -0.5878125 17.576875 -1.1875 16.125 C-3.19793856 12.65872662 -4.22699642 12.0197307 -8 11 C-7.67 9.68 -7.34 8.36 -7 7 C-5.35 6.67 -3.7 6.34 -2 6 C-1.34 4.02 -0.68 2.04 0 0 Z " fill="#2563EB" transform="translate(39,0)"/>
</svg>
