<?xml version="1.0" encoding="UTF-8"?>
<svg version="1.1" xmlns="http://www.w3.org/2000/svg" width="58" height="57">
<path d="M0 0 C1.98 0 3.96 0 6 0 C7.17154293 2.28929053 8.33738074 4.58118362 9.5 6.875 C9.83386719 7.52597656 10.16773438 8.17695313 10.51171875 8.84765625 C13 13.7734375 13 13.7734375 13 16 C13.78503906 16.06058594 14.57007813 16.12117188 15.37890625 16.18359375 C20.95361148 16.62820214 26.47640616 17.12124643 32 18 C32.49954928 21.49684498 32.74793389 23.98833184 30.58203125 26.91796875 C27.59000772 29.90999228 24.40842311 32.49646798 21 35 C21.144375 36.08539063 21.28875 37.17078125 21.4375 38.2890625 C21.62519956 39.7343491 21.81268838 41.17966307 22 42.625 C22.09539063 43.33785156 22.19078125 44.05070312 22.2890625 44.78515625 C22.81606101 48.88821609 23.10466984 52.85245742 23 57 C16.86894937 56.72750886 12.90563345 54.42967332 7.74609375 51.1796875 C4.26225089 49.68307222 2.62066351 49.96353278 -1 51 C-3.07432895 51.95271342 -5.11725491 52.97646909 -7.125 54.0625 C-10.94176382 56.12627178 -12.58547221 57 -17 57 C-17.15466806 53.05596459 -17.21777721 49.79544915 -16.16796875 45.9609375 C-15.23702297 42.39868835 -14.68345384 39.68147519 -15 36 C-17.15818562 33.17215813 -19.20334805 31.04090255 -21.9855957 28.8659668 C-23.5234375 27.6328125 -23.5234375 27.6328125 -26 25 C-26.3515625 21.1796875 -26.3515625 21.1796875 -26 18 C-24.7934375 17.95746094 -23.586875 17.91492188 -22.34375 17.87109375 C-13.66665993 17.45914834 -13.66665993 17.45914834 -6.36230469 13.38574219 C-3.48787955 9.25336294 -1.66349053 4.72873358 0 0 Z M2 6 C1.67128906 6.91523437 1.34257812 7.83046875 1.00390625 8.7734375 C-2.81705534 18.32066403 -2.81705534 18.32066403 -6.15625 20.23828125 C-8.45771563 20.69148082 -10.65971554 20.87448301 -13 21 C-14.36405422 21.33726615 -15.72027155 21.70928957 -17.0625 22.125 C-18.031875 22.41375 -19.00125 22.7025 -20 23 C-18.9171875 24.0828125 -18.9171875 24.0828125 -17.8125 25.1875 C-16.884375 26.115625 -15.95625 27.04375 -15 28 C-14.113125 28.7115625 -13.22625 29.423125 -12.3125 30.15625 C-9.69345396 33.37696878 -9.56228429 35.04973409 -9.91601562 39.12695312 C-10.00560547 39.84818359 -10.09519531 40.56941406 -10.1875 41.3125 C-10.25775391 42.05306641 -10.32800781 42.79363281 -10.40039062 43.55664062 C-10.57622353 45.3735806 -10.78486097 47.18729394 -11 49 C-7.7748447 47.97422144 -4.95952931 46.97723524 -2 45.3125 C1.76218056 43.66654601 3.08173889 43.7943812 7 45 C10.39542673 46.55496269 13.70828531 48.23704609 17 50 C16.82339844 48.87722656 16.64679687 47.75445312 16.46484375 46.59765625 C14.94981436 34.65997085 14.94981436 34.65997085 17.9375 29.9375 C20.4375 27.5625 20.4375 27.5625 22.99609375 25.56640625 C23.65738281 25.04949219 24.31867187 24.53257813 25 24 C25 23.34 25 22.68 25 22 C24.0821875 22.01804687 23.164375 22.03609375 22.21875 22.0546875 C12.56610125 21.588278 12.56610125 21.588278 9.55175781 18.53125 C6.79312896 14.63972716 4.8431105 10.38454238 3 6 C2.67 6 2.34 6 2 6 Z " fill="#2563EB" transform="translate(26,0)"/>
</svg>
