<?xml version="1.0" encoding="UTF-8"?>
<!DOCTYPE svg PUBLIC "-//W3C//DTD SVG 1.1//EN" "http://www.w3.org/Graphics/SVG/1.1/DTD/svg11.dtd">
<svg xmlns="http://www.w3.org/2000/svg" version="1.1" width="200px" height="225px" style="shape-rendering:geometricPrecision; text-rendering:geometricPrecision; image-rendering:optimizeQuality; fill-rule:evenodd; clip-rule:evenodd" xmlns:xlink="http://www.w3.org/1999/xlink">
<g><path style="opacity:1" fill="#fb0308" d="M 70.5,-0.5 C 89.8333,-0.5 109.167,-0.5 128.5,-0.5C 136.561,2.63382 143.394,7.63382 149,14.5C 149.5,23.1603 149.666,31.8269 149.5,40.5C 166.167,40.5 182.833,40.5 199.5,40.5C 199.5,47.8333 199.5,55.1667 199.5,62.5C 192.833,62.5 186.167,62.5 179.5,62.5C 179.22,103.174 179.553,143.841 180.5,184.5C 181.275,197.068 178.441,208.734 172,219.5C 167.689,221.862 163.189,223.529 158.5,224.5C 118.833,224.5 79.1667,224.5 39.5,224.5C 34.0654,222.532 28.8987,219.865 24,216.5C 22.2678,212.637 20.9344,208.637 20,204.5C 19.5,157.168 19.3333,109.835 19.5,62.5C 12.8333,62.5 6.16667,62.5 -0.5,62.5C -0.5,55.1667 -0.5,47.8333 -0.5,40.5C 16.1667,40.5 32.8333,40.5 49.5,40.5C 49.3336,31.8269 49.5002,23.1603 50,14.5C 55.9153,8.06153 62.7487,3.06153 70.5,-0.5 Z M 78.5,20.5 C 91.1711,20.3334 103.838,20.5001 116.5,21C 119.893,21.7977 123.226,22.7977 126.5,24C 128.42,29.1973 129.087,34.6973 128.5,40.5C 109.167,40.5 89.8333,40.5 70.5,40.5C 70.1718,35.1254 70.5052,29.7921 71.5,24.5C 74.0591,23.3924 76.3924,22.0591 78.5,20.5 Z M 41.5,62.5 C 80.1667,62.5 118.833,62.5 157.5,62.5C 157.833,108.172 157.5,153.838 156.5,199.5C 154.167,200.667 151.833,201.833 149.5,203C 117.5,203.667 85.5,203.667 53.5,203C 49.7357,202.134 46.069,200.967 42.5,199.5C 41.5001,153.838 41.1667,108.172 41.5,62.5 Z"/></g>
</svg>
