<?xml version="1.0" encoding="UTF-8"?>
<svg version="1.1" xmlns="http://www.w3.org/2000/svg" width="48" height="54">
<path d="M0 0 C1.794375 -0.01546875 1.794375 -0.01546875 3.625 -0.03125 C7.63103189 0.59932909 9.32408195 1.45918404 12 4.5 C12 6.48 12 8.46 12 10.5 C15.96 10.5 19.92 10.5 24 10.5 C24 12.15 24 13.8 24 15.5 C22.35 15.5 20.7 15.5 19 15.5 C19.01571045 17.06681519 19.01571045 17.06681519 19.03173828 18.6652832 C19.06793172 22.53976007 19.09089805 26.41422199 19.10986328 30.28881836 C19.11992237 31.96592725 19.13357122 33.64301861 19.15087891 35.32006836 C19.17513152 37.73035002 19.1864839 40.14039986 19.1953125 42.55078125 C19.20563507 43.30087967 19.21595764 44.05097809 19.22659302 44.82380676 C19.227408 48.60300779 19.15057067 50.27414399 17 53.5 C11.58224062 55.30591979 5.73136472 54.68467264 0.0625 54.6875 C-1.22591797 54.69974609 -2.51433594 54.71199219 -3.84179688 54.72460938 C-5.07865234 54.72654297 -6.31550781 54.72847656 -7.58984375 54.73046875 C-9.28935181 54.73663208 -9.28935181 54.73663208 -11.02319336 54.74291992 C-13.93779634 54.50507608 -15.58759138 54.11217083 -18 52.5 C-19.55977064 49.38045872 -19.12104126 46.07040616 -19.09765625 42.6484375 C-19.0962413 41.87440582 -19.09482635 41.10037415 -19.09336853 40.30288696 C-19.08776403 37.82688558 -19.07521083 35.35097412 -19.0625 32.875 C-19.05748558 31.19791797 -19.05292257 29.52083453 -19.04882812 27.84375 C-19.03779315 23.72913194 -19.02052554 19.61458122 -19 15.5 C-20.65 15.5 -22.3 15.5 -24 15.5 C-24 13.85 -24 12.2 -24 10.5 C-20.04 10.5 -16.08 10.5 -12 10.5 C-12 8.52 -12 6.54 -12 4.5 C-8.39003311 0.3977649 -5.3244855 -0.04590074 0 0 Z M-7 6.5 C-7 7.82 -7 9.14 -7 10.5 C-2.38 10.5 2.24 10.5 7 10.5 C7 9.18 7 7.86 7 6.5 C4.51245214 5.25622607 2.77344699 5.36693765 0 5.375 C-1.3303125 5.37113281 -1.3303125 5.37113281 -2.6875 5.3671875 C-5.02676966 5.34872098 -5.02676966 5.34872098 -7 6.5 Z M-14 15.5 C-14 26.39 -14 37.28 -14 48.5 C-11.41276011 49.79361994 -9.51886997 49.62948949 -6.625 49.6328125 C-5.02398438 49.63474609 -5.02398438 49.63474609 -3.390625 49.63671875 C-2.27171875 49.63285156 -1.1528125 49.62898438 0 49.625 C1.11890625 49.62886719 2.2378125 49.63273437 3.390625 49.63671875 C4.45796875 49.63542969 5.5253125 49.63414063 6.625 49.6328125 C7.60726563 49.63168457 8.58953125 49.63055664 9.6015625 49.62939453 C12.01407894 49.65895235 12.01407894 49.65895235 14 48.5 C14 37.61 14 26.72 14 15.5 C4.76 15.5 -4.48 15.5 -14 15.5 Z " fill="#2563EB" transform="translate(24,-0.5)"/>
</svg>
